<svg xmlns="http://www.w3.org/2000/svg" width="24" height="24" viewBox="0 0 24 24">
  <g id="content_copy_black_24dp" transform="translate(0 -0.098)">
    <g id="Group_997" data-name="Group 997">
      <rect id="Rectangle_387" data-name="Rectangle 387" width="24" height="24" transform="translate(0 0.098)" fill="none"/>
    </g>
    <g id="Group_998" data-name="Group 998" transform="translate(3 2.97)">
      <path id="Path_2906" data-name="Path 2906" d="M15,20H5V7A1,1,0,0,0,4,6H4A1,1,0,0,0,3,7V20a2.006,2.006,0,0,0,2,2H15a1,1,0,0,0,1-1h0A1,1,0,0,0,15,20Zm5-4V4a2.006,2.006,0,0,0-2-2H9A2.006,2.006,0,0,0,7,4V16a2.006,2.006,0,0,0,2,2h9A2.006,2.006,0,0,0,20,16Zm-2,0H9V4h9Z" transform="translate(-3 -2)" fill="#a87a0c"/>
    </g>
  </g>
</svg>
