<svg xmlns="http://www.w3.org/2000/svg" width="24" height="24.001" viewBox="0 0 24 24.001">
  <path id="coupan_icon" d="M109.916,27.983a.8.8,0,0,0,.083,1.6,10.4,10.4,0,1,1-2.233.242.8.8,0,1,0-.333-1.558A11.977,11.977,0,1,0,110,27.983a.778.778,0,0,0-.083,0Zm4.9,4.517a.8.8,0,0,0-.667.342l-9.6,13.333a.8.8,0,0,0,1.3.942l9.6-13.333a.8.8,0,0,0-.633-1.283Zm-7.483.817A2.667,2.667,0,1,0,110,35.983,2.679,2.679,0,0,0,107.333,33.317Zm0,1.6a1.067,1.067,0,1,1-1.067,1.067A1.055,1.055,0,0,1,107.333,34.917Zm5.333,6.4a2.667,2.667,0,1,0,2.667,2.667A2.679,2.679,0,0,0,112.666,41.317Zm0,1.6a1.067,1.067,0,1,1-1.067,1.067A1.055,1.055,0,0,1,112.666,42.917Z" transform="translate(-98 -27.982)" fill="#14274a"/>
</svg>
