<svg xmlns="http://www.w3.org/2000/svg" width="24" height="24" viewBox="0 0 24 24">
  <g id="Hitory_Icon" data-name="Hitory Icon" transform="translate(6154 12500)">
    <rect id="Rectangle_299" data-name="Rectangle 299" width="24" height="24" transform="translate(-6154 -12500)" fill="#fff" opacity="0"/>
    <g id="noun_History_3324817" transform="translate(-6158.422 -12504.027)">
      <g id="Group_689" data-name="Group 689" transform="translate(6.55 5.91)">
        <path id="Path_2165" data-name="Path 2165" d="M22.287,9.971a.582.582,0,0,1-.582.582h-11.2a.582.582,0,1,1,0-1.164h11.2a.582.582,0,0,1,.582.582Zm0,3.379a.582.582,0,0,0-.582-.582h-11.2a.582.582,0,1,0,0,1.164h11.2A.582.582,0,0,0,22.287,13.35Zm-7.106,3.382a.582.582,0,0,0-.582-.582H10.5a.582.582,0,0,0,0,1.164h4.1A.582.582,0,0,0,15.181,16.732ZM10.5,19.521a.582.582,0,1,0,0,1.164h3.018a.582.582,0,1,0,0-1.164Zm15.791,1.346a5.268,5.268,0,0,1-9.158,3.561H8.683A2.137,2.137,0,0,1,6.55,22.295V8.043A2.137,2.137,0,0,1,8.683,5.91H23.524a2.133,2.133,0,0,1,2.133,2.133v7.37a.582.582,0,1,1-1.164,0V8.043a.97.97,0,0,0-.97-.97H8.683a.974.974,0,0,0-.97.97V22.3a.974.974,0,0,0,.97.97h7.642a5.2,5.2,0,0,1-.582-2.4,5.275,5.275,0,1,1,10.551,0Zm-1.164,0a4.108,4.108,0,1,0,0,.008ZM21.019,17.7a.582.582,0,0,0-.582.582V20.3h-1.59a.582.582,0,1,0,0,1.164h2.172a.582.582,0,0,0,.582-.582.679.679,0,0,0,0-.128.721.721,0,0,0,0-.132V18.292a.582.582,0,0,0-.582-.586Z" transform="translate(-6.55 -5.91)"/>
      </g>
    </g>
  </g>
</svg>
