<svg xmlns="http://www.w3.org/2000/svg" width="24" height="24" viewBox="0 0 24 24">
  <g id="Phone_Support_Icon" data-name="Phone Support Icon" transform="translate(6301 12831)">
    <rect id="Rectangle_312" data-name="Rectangle 312" width="24" height="24" transform="translate(-6301 -12831)" fill="#fff" opacity="0"/>
    <g id="_4014702_call_phone_service_support_icon" data-name="4014702_call_phone_service_support_icon" transform="translate(-6298.891 -12828.912)">
      <path id="Path_2192" data-name="Path 2192" d="M6.107.442A2.709,2.709,0,0,0,2.9-.289,16.052,16.052,0,0,0-.225,2.36c-2.32,2.32,3.141,9.948,5.464,12.271C7.147,16.539,12.306,20.3,15.363,20.3a4.784,4.784,0,0,0,2.492-.687,8.45,8.45,0,0,0,2.01-2.351,2.748,2.748,0,0,0-.459-3.35,20.363,20.363,0,0,0-2.964-2.073c-.857-.5-1.9-1.048-2.762,0a8.281,8.281,0,0,1-1.3,1.272c-.784.614-1.211.329-1.211.329L6.49,8.744c-.954-.957,1.158-2.518,1.848-3.206C9.307,4.569,7.086,1.585,6.107.442Zm-1.1.629C6.788,3.153,7.541,4.788,7.219,5.1c-.133.136-.31.31-.489.5L3.323.843A1.3,1.3,0,0,1,5.011,1.072ZM14.7,12.593c.31-.31,1.957.43,4.026,2.208a1.3,1.3,0,0,1,.251,1.651L14.389,12.9ZM5.413,9.629l4.7,4.7c1.149,1.149,2.809.051,3.809-.882l4.646,3.593a13.517,13.517,0,0,1-1.545,1.77c-1.713,1.71-8.1-2.279-10.911-5.085s-6.81-9.2-5.1-10.911A12.234,12.234,0,0,1,2.672,1.322L6.107,6.145C5.206,7.157,4.339,8.554,5.413,9.629Z" transform="translate(0 -0.006)" fill="#050c19"/>
      <path id="Path_2193" data-name="Path 2193" d="M31.31,0a.31.31,0,1,0,0,.619A9.291,9.291,0,0,1,40.6,9.911a.31.31,0,1,0,.619,0A9.911,9.911,0,0,0,31.31,0Z" transform="translate(-21.415)" fill="#050c19"/>
      <path id="Path_2194" data-name="Path 2194" d="M41.376,12.863h.034a.31.31,0,0,0,.273-.341A8.319,8.319,0,0,0,34.34,5.176a.312.312,0,1,0-.068.619,7.693,7.693,0,0,1,6.795,6.792A.31.31,0,0,0,41.376,12.863Z" transform="translate(-23.482 -3.571)" fill="#050c19"/>
      <path id="Path_2195" data-name="Path 2195" d="M40.724,15.466a.311.311,0,1,0,.595-.18,6.829,6.829,0,0,0-4.909-4.67.31.31,0,0,0-.149.6A6.21,6.21,0,0,1,40.724,15.466Z" transform="translate(-24.892 -7.323)" fill="#050c19"/>
      <path id="Path_2196" data-name="Path 2196" d="M28.476,19.239a1.239,1.239,0,0,0-2.478,0,.31.31,0,1,0,.619,0,.619.619,0,0,1,1.239,0c0,.554-1.056,1.465-1.722,1.911a.31.31,0,0,0,.173.567h1.858a.31.31,0,1,0,0-.619h-.929C27.795,20.611,28.476,19.9,28.476,19.239Z" transform="translate(-17.962 -12.425)" fill="#050c19"/>
      <path id="Path_2197" data-name="Path 2197" d="M38.549,21.716a.31.31,0,0,0,.31-.31v-3.1a.31.31,0,1,0-.619,0v1.239h-.619V18.31a.31.31,0,0,0-.619,0v1.239a.619.619,0,0,0,.619.619h.619v1.239A.31.31,0,0,0,38.549,21.716Z" transform="translate(-25.557 -12.425)" fill="#050c19"/>
      <path id="Path_2198" data-name="Path 2198" d="M34.31,32.619h1.549a4.627,4.627,0,0,0-.929,2.168.31.31,0,1,0,.619,0A5.442,5.442,0,0,1,36.719,32.5a.315.315,0,0,0-.242-.5H34.31a.31.31,0,0,0,0,.619Z" transform="translate(-23.486 -22.089)" fill="#050c19"/>
    </g>
  </g>
</svg>
